<svg width="16" height="21" viewBox="0 0 16 21" fill="none" xmlns="http://www.w3.org/2000/svg">
<path d="M15.4996 7.07174C15.4122 7.12744 13.3338 8.30311 13.3338 10.9098C13.4318 13.8826 15.9567 14.9252 16 14.9252C15.9567 14.9809 15.6188 16.3454 14.6179 17.7757C13.8236 19.0078 12.942 20.25 11.6032 20.25C10.3297 20.25 9.87257 19.4289 8.40317 19.4289C6.82518 19.4289 6.37868 20.25 5.17051 20.25C3.83173 20.25 2.88479 18.9412 2.04717 17.7207C0.958967 16.1233 0.0340318 13.6164 0.00137868 11.2093C-0.0206267 9.93384 0.219303 8.68004 0.828355 7.61507C1.68798 6.12831 3.22268 5.11905 4.89864 5.08577C6.18276 5.04164 7.32562 5.98434 8.1093 5.98434C8.86032 5.98434 10.2644 5.08577 11.853 5.08577C12.5388 5.08649 14.3673 5.29703 15.4996 7.07174ZM8.00069 4.8311C7.77212 3.66629 8.40317 2.50148 8.99093 1.75847C9.74195 0.859898 10.9281 0.25 11.951 0.25C12.0163 1.41481 11.6025 2.55719 10.8628 3.3892C10.1991 4.28777 9.05624 4.96423 8.00069 4.8311Z" fill="white"/>
</svg>
