<svg width="25" height="24" viewBox="0 0 25 24" fill="none" xmlns="http://www.w3.org/2000/svg">
<path d="M11.7232 19.1155L11.7217 19.1142C9.12662 16.7609 7.05384 14.8788 5.6178 13.1231C4.19324 11.3814 3.5 9.88647 3.5 8.32495C3.5 5.79724 5.47228 3.82495 8 3.82495C9.43721 3.82495 10.8322 4.49889 11.7386 5.56329L12.5 6.45735L13.2614 5.56329C14.1678 4.49889 15.5628 3.82495 17 3.82495C19.5277 3.82495 21.5 5.79724 21.5 8.32495C21.5 9.88648 20.8068 11.3815 19.382 13.1246C17.9459 14.8815 15.8734 16.7659 13.2786 19.1239C13.2782 19.1242 13.2778 19.1246 13.2775 19.1249L12.5026 19.825L11.7232 19.1155Z" fill="white" stroke="#202020" stroke-width="2"/>
</svg>
