<svg width="26" height="24" viewBox="0 0 26 24" fill="none" xmlns="http://www.w3.org/2000/svg">
<path d="M19.6562 15.06C17.9062 14.2 15.6354 13.5 13 13.5C10.3645 13.5 8.09371 14.2 6.34371 15.06C5.30204 15.57 4.66663 16.6 4.66663 17.72V20.5H21.3333V17.72C21.3333 16.6 20.6979 15.57 19.6562 15.06ZM19.25 18.5H6.74996V17.72C6.74996 17.34 6.95829 17 7.29163 16.84C8.53121 16.23 10.5312 15.5 13 15.5C15.4687 15.5 17.4687 16.23 18.7083 16.84C19.0416 17 19.25 17.34 19.25 17.72V18.5Z" fill="#202020"/>
<path d="M13 12.5C15.302 12.5 17.1666 10.71 17.1666 8.5C17.1666 7.13 17.1666 5 17.1666 5C17.1666 4.17 16.4687 3.5 15.6041 3.5C15.0625 3.5 14.5833 3.77 14.302 4.17C14.0208 3.77 13.5416 3.5 13 3.5C12.4583 3.5 11.9791 3.77 11.6979 4.17C11.4166 3.77 10.9375 3.5 10.3958 3.5C9.53121 3.5 8.83329 4.17 8.83329 5C8.83329 5 8.83329 7.12 8.83329 8.5C8.83329 10.71 10.6979 12.5 13 12.5ZM10.9166 6H15.0833V8.5C15.0833 9.6 14.1458 10.5 13 10.5C11.8541 10.5 10.9166 9.6 10.9166 8.5V6Z" fill="#202020"/>
</svg>
