<svg width="16" height="16" viewBox="0 0 16 16" fill="none" xmlns="http://www.w3.org/2000/svg">
<path d="M12.2601 10.0399C11.1401 9.46659 9.68675 8.99992 8.00008 8.99992C6.31341 8.99992 4.86008 9.46659 3.74008 10.0399C3.07341 10.3799 2.66675 11.0666 2.66675 11.8133V13.6666H13.3334V11.8133C13.3334 11.0666 12.9267 10.3799 12.2601 10.0399ZM12.0001 12.3333H4.00008V11.8133C4.00008 11.5599 4.13341 11.3333 4.34675 11.2266C5.14008 10.8199 6.42008 10.3333 8.00008 10.3333C9.58008 10.3333 10.8601 10.8199 11.6534 11.2266C11.8667 11.3333 12.0001 11.5599 12.0001 11.8133V12.3333Z" fill="#D1D9CF"/>
<path d="M8.00008 8.33325C9.47341 8.33325 10.6667 7.13992 10.6667 5.66659C10.6667 4.75325 10.6667 3.33325 10.6667 3.33325C10.6667 2.77992 10.2201 2.33325 9.66675 2.33325C9.32008 2.33325 9.01341 2.51325 8.83341 2.77992C8.65341 2.51325 8.34675 2.33325 8.00008 2.33325C7.65341 2.33325 7.34675 2.51325 7.16675 2.77992C6.98675 2.51325 6.68008 2.33325 6.33341 2.33325C5.78008 2.33325 5.33341 2.77992 5.33341 3.33325C5.33341 3.33325 5.33341 4.74659 5.33341 5.66659C5.33341 7.13992 6.52675 8.33325 8.00008 8.33325ZM6.66675 3.99992H9.33341V5.66659C9.33341 6.39992 8.73341 6.99992 8.00008 6.99992C7.26675 6.99992 6.66675 6.39992 6.66675 5.66659V3.99992Z" fill="#D1D9CF"/>
</svg>
