<svg width="16" height="16" viewBox="0 0 16 16" fill="none" xmlns="http://www.w3.org/2000/svg">
<path d="M12.2601 10.04C11.1401 9.46671 9.68675 9.00004 8.00008 9.00004C6.31341 9.00004 4.86008 9.46671 3.74008 10.04C3.07341 10.38 2.66675 11.0667 2.66675 11.8134V13.6667H13.3334V11.8134C13.3334 11.0667 12.9267 10.38 12.2601 10.04ZM12.0001 12.3334H4.00008V11.8134C4.00008 11.56 4.13341 11.3334 4.34675 11.2267C5.14008 10.82 6.42008 10.3334 8.00008 10.3334C9.58008 10.3334 10.8601 10.82 11.6534 11.2267C11.8667 11.3334 12.0001 11.56 12.0001 11.8134V12.3334Z" fill="#606060"/>
<path d="M8.00008 8.33337C9.47341 8.33337 10.6667 7.14004 10.6667 5.66671C10.6667 4.75337 10.6667 3.33337 10.6667 3.33337C10.6667 2.78004 10.2201 2.33337 9.66675 2.33337C9.32008 2.33337 9.01341 2.51337 8.83341 2.78004C8.65341 2.51337 8.34675 2.33337 8.00008 2.33337C7.65341 2.33337 7.34675 2.51337 7.16675 2.78004C6.98675 2.51337 6.68008 2.33337 6.33341 2.33337C5.78008 2.33337 5.33341 2.78004 5.33341 3.33337C5.33341 3.33337 5.33341 4.74671 5.33341 5.66671C5.33341 7.14004 6.52675 8.33337 8.00008 8.33337ZM6.66675 4.00004H9.33341V5.66671C9.33341 6.40004 8.73341 7.00004 8.00008 7.00004C7.26675 7.00004 6.66675 6.40004 6.66675 5.66671V4.00004Z" fill="#606060"/>
</svg>
