<svg width="16" height="16" viewBox="0 0 16 16" fill="none" xmlns="http://www.w3.org/2000/svg">
<path d="M8.00008 3.98337C10.5267 3.98337 12.7801 5.40337 13.8801 7.65003C13.4867 8.46337 12.9334 9.16337 12.2734 9.73003L13.2134 10.67C14.1401 9.85003 14.8734 8.82337 15.3334 7.65003C14.1801 4.72337 11.3334 2.65003 8.00008 2.65003C7.15341 2.65003 6.34008 2.78337 5.57341 3.03003L6.67341 4.13003C7.10675 4.04337 7.54675 3.98337 8.00008 3.98337ZM7.28675 4.74337L8.66675 6.12337C9.04675 6.29003 9.35341 6.5967 9.52008 6.9767L10.9001 8.3567C10.9534 8.13003 10.9934 7.89003 10.9934 7.64337C11.0001 5.99003 9.65341 4.65003 8.00008 4.65003C7.75341 4.65003 7.52008 4.68337 7.28675 4.74337ZM1.34008 2.56337L3.12675 4.35003C2.04008 5.20337 1.18008 6.3367 0.666748 7.65003C1.82008 10.5767 4.66675 12.65 8.00008 12.65C9.01341 12.65 9.98675 12.4567 10.8801 12.1034L13.1601 14.3834L14.1001 13.4434L2.28008 1.6167L1.34008 2.56337ZM6.34008 7.56337L8.08008 9.30337C8.05341 9.31003 8.02675 9.3167 8.00008 9.3167C7.08008 9.3167 6.33341 8.57003 6.33341 7.65003C6.33341 7.6167 6.34008 7.5967 6.34008 7.56337ZM4.07341 5.2967L5.24008 6.46337C5.08675 6.83003 5.00008 7.23003 5.00008 7.65003C5.00008 9.30337 6.34675 10.65 8.00008 10.65C8.42008 10.65 8.82008 10.5634 9.18008 10.41L9.83341 11.0634C9.24675 11.2234 8.63341 11.3167 8.00008 11.3167C5.47341 11.3167 3.22008 9.8967 2.12008 7.65003C2.58675 6.6967 3.26675 5.91003 4.07341 5.2967Z" fill="#606060"/>
</svg>
